<mxfile host="app.diagrams.net" modified="2023-01-09T04:22:53.500Z" agent="5.0 (Macintosh; Intel Mac OS X 10_15_7) AppleWebKit/605.1.15 (KHTML, like Gecko) Version/16.0 Safari/605.1.15" etag="1le6IW6Pv85Nix_Wxmph" version="20.8.3" type="github">
  <diagram id="GRluOWZkKIe7Q2GazVMt" name="Page-1">
    <mxGraphModel dx="1050" dy="581" grid="1" gridSize="10" guides="1" tooltips="1" connect="1" arrows="1" fold="1" page="1" pageScale="1" pageWidth="850" pageHeight="1100" math="0" shadow="0">
      <root>
        <mxCell id="0" />
        <mxCell id="1" parent="0" />
        <mxCell id="DdpInW4cmCt2tAZ-7zsU-20" style="edgeStyle=orthogonalEdgeStyle;rounded=0;orthogonalLoop=1;jettySize=auto;html=1;entryX=0;entryY=0.25;entryDx=0;entryDy=0;strokeColor=#000000;startArrow=classic;startFill=1;" parent="1" source="DdpInW4cmCt2tAZ-7zsU-1" target="DdpInW4cmCt2tAZ-7zsU-19" edge="1">
          <mxGeometry relative="1" as="geometry" />
        </mxCell>
        <mxCell id="DdpInW4cmCt2tAZ-7zsU-1" value="" style="sketch=0;outlineConnect=0;fontColor=#232F3E;gradientColor=none;fillColor=#232F3D;strokeColor=none;dashed=0;verticalLabelPosition=bottom;verticalAlign=top;align=center;html=1;fontSize=12;fontStyle=0;aspect=fixed;pointerEvents=1;shape=mxgraph.aws4.mobile_client;" parent="1" vertex="1">
          <mxGeometry x="40" y="103.5" width="36.79" height="70" as="geometry" />
        </mxCell>
        <mxCell id="DdpInW4cmCt2tAZ-7zsU-21" style="edgeStyle=orthogonalEdgeStyle;rounded=0;orthogonalLoop=1;jettySize=auto;html=1;entryX=0;entryY=0.5;entryDx=0;entryDy=0;strokeColor=#000000;startArrow=classic;startFill=1;" parent="1" source="DdpInW4cmCt2tAZ-7zsU-2" target="DdpInW4cmCt2tAZ-7zsU-19" edge="1">
          <mxGeometry relative="1" as="geometry" />
        </mxCell>
        <mxCell id="DdpInW4cmCt2tAZ-7zsU-2" value="" style="aspect=fixed;html=1;points=[];align=center;image;fontSize=12;image=img/lib/azure2/general/Browser.svg;" parent="1" vertex="1">
          <mxGeometry x="40" y="260" width="50" height="40" as="geometry" />
        </mxCell>
        <mxCell id="DdpInW4cmCt2tAZ-7zsU-4" value="User Service" style="rounded=0;whiteSpace=wrap;html=1;" parent="1" vertex="1">
          <mxGeometry x="400" y="50" width="147" height="30" as="geometry" />
        </mxCell>
        <mxCell id="DdpInW4cmCt2tAZ-7zsU-5" value="Listing Service" style="rounded=0;whiteSpace=wrap;html=1;" parent="1" vertex="1">
          <mxGeometry x="400" y="103.5" width="147" height="30" as="geometry" />
        </mxCell>
        <mxCell id="DdpInW4cmCt2tAZ-7zsU-6" value="Booking Service" style="rounded=0;whiteSpace=wrap;html=1;" parent="1" vertex="1">
          <mxGeometry x="400" y="155" width="147" height="30" as="geometry" />
        </mxCell>
        <mxCell id="DdpInW4cmCt2tAZ-7zsU-7" value="Payment Service" style="rounded=0;whiteSpace=wrap;html=1;" parent="1" vertex="1">
          <mxGeometry x="400" y="210" width="147" height="30" as="geometry" />
        </mxCell>
        <mxCell id="DdpInW4cmCt2tAZ-7zsU-9" value="MySql" style="shape=cylinder3;whiteSpace=wrap;html=1;boundedLbl=1;backgroundOutline=1;size=15;" parent="1" vertex="1">
          <mxGeometry x="700" y="130" width="60" height="80" as="geometry" />
        </mxCell>
        <mxCell id="DdpInW4cmCt2tAZ-7zsU-10" value="" style="endArrow=none;dashed=1;html=1;dashPattern=1 3;strokeWidth=2;rounded=0;strokeColor=#919191;" parent="1" edge="1">
          <mxGeometry width="50" height="50" relative="1" as="geometry">
            <mxPoint x="180" y="540" as="sourcePoint" />
            <mxPoint x="180" y="40" as="targetPoint" />
          </mxGeometry>
        </mxCell>
        <mxCell id="DdpInW4cmCt2tAZ-7zsU-29" style="edgeStyle=orthogonalEdgeStyle;rounded=0;orthogonalLoop=1;jettySize=auto;html=1;exitX=1;exitY=0.5;exitDx=0;exitDy=0;entryX=0;entryY=0.25;entryDx=0;entryDy=0;strokeColor=#000000;startArrow=classic;startFill=1;" parent="1" source="DdpInW4cmCt2tAZ-7zsU-19" target="DdpInW4cmCt2tAZ-7zsU-28" edge="1">
          <mxGeometry relative="1" as="geometry" />
        </mxCell>
        <mxCell id="DdpInW4cmCt2tAZ-7zsU-19" value="API Gateway" style="rounded=0;whiteSpace=wrap;html=1;strokeWidth=1;" parent="1" vertex="1">
          <mxGeometry x="170" y="173.5" width="110" height="60" as="geometry" />
        </mxCell>
        <mxCell id="DdpInW4cmCt2tAZ-7zsU-30" style="edgeStyle=orthogonalEdgeStyle;rounded=0;orthogonalLoop=1;jettySize=auto;html=1;exitX=1;exitY=0.25;exitDx=0;exitDy=0;strokeColor=#000000;startArrow=classic;startFill=1;" parent="1" source="DdpInW4cmCt2tAZ-7zsU-28" target="DdpInW4cmCt2tAZ-7zsU-9" edge="1">
          <mxGeometry relative="1" as="geometry" />
        </mxCell>
        <mxCell id="DdpInW4cmCt2tAZ-7zsU-28" value="" style="rounded=0;whiteSpace=wrap;html=1;strokeWidth=1;fillColor=none;" parent="1" vertex="1">
          <mxGeometry x="380" y="35" width="190" height="435" as="geometry" />
        </mxCell>
      </root>
    </mxGraphModel>
  </diagram>
</mxfile>
